<svg width="16" height="16" viewBox="0 0 16 16" fill="none" xmlns="http://www.w3.org/2000/svg">
<path fill-rule="evenodd" clip-rule="evenodd" d="M1.49491 3.30799C1.30793 3.30799 1.17927 3.45406 1.17927 3.59804V12.402C1.17927 12.546 1.30793 12.692 1.49491 12.692H14.5046C14.6916 12.692 14.8203 12.546 14.8203 12.402V3.59804C14.8203 3.45406 14.6916 3.30799 14.5046 3.30799H1.49491ZM0.326172 3.59804C0.326172 2.95718 0.862926 2.4549 1.49491 2.4549H14.5046C15.1366 2.4549 15.6734 2.95718 15.6734 3.59804V12.402C15.6734 13.0428 15.1366 13.5451 14.5046 13.5451H1.49491C0.862926 13.5451 0.326172 13.0428 0.326172 12.402V3.59804Z" fill="white"/>
<path fill-rule="evenodd" clip-rule="evenodd" d="M15.2463 6.7201H4.00488V5.867H15.2463V6.7201Z" fill="white"/>
</svg>
