<svg width="24" height="18" viewBox="0 0 24 18" fill="none" xmlns="http://www.w3.org/2000/svg">
<path fill-rule="evenodd" clip-rule="evenodd" d="M2.24237 1.96198C1.96189 1.96198 1.7689 2.18108 1.7689 2.39706V15.603C1.7689 15.8189 1.96189 16.038 2.24237 16.038H21.7569C22.0374 16.038 22.2304 15.8189 22.2304 15.603V2.39706C22.2304 2.18108 22.0374 1.96198 21.7569 1.96198H2.24237ZM0.489258 2.39706C0.489258 1.43576 1.29439 0.682335 2.24237 0.682335H21.7569C22.7049 0.682335 23.51 1.43576 23.51 2.39706V15.603C23.51 16.5643 22.7049 17.3177 21.7569 17.3177H2.24237C1.29439 17.3177 0.489258 16.5643 0.489258 15.603V2.39706Z" fill="black"/>
<path fill-rule="evenodd" clip-rule="evenodd" d="M22.87 7.08014H6.00781V5.8005H22.87V7.08014Z" fill="black"/>
</svg>
