<svg width="14" height="18" viewBox="0 0 14 18" fill="none" xmlns="http://www.w3.org/2000/svg">
<path fill-rule="evenodd" clip-rule="evenodd" d="M12.3453 4.345L9.98866 1.98833C9.67616 1.67583 9.25199 1.5 8.81033 1.5H2.83366C1.91283 1.5 1.16699 2.24583 1.16699 3.16667V14.8333C1.16699 15.7542 1.91283 16.5 2.83366 16.5H11.167C12.0878 16.5 12.8337 15.7542 12.8337 14.8333V5.52333C12.8337 5.08167 12.6578 4.6575 12.3453 4.345V4.345Z" stroke="#3772FF" stroke-width="1.5" stroke-linecap="round" stroke-linejoin="round"/>
<path d="M12.8337 5.66667H9.50033C9.04033 5.66667 8.66699 5.29333 8.66699 4.83333V1.5" stroke="#3772FF" stroke-width="1.5" stroke-linecap="round" stroke-linejoin="round"/>
<path d="M5.61719 12.7917H8.38385" stroke="#3772FF" stroke-linecap="round" stroke-linejoin="round"/>
<path fill-rule="evenodd" clip-rule="evenodd" d="M6.02734 9.62579V8.65246C6.02734 8.38413 6.24484 8.16663 6.51318 8.16663H7.48651C7.75484 8.16663 7.97234 8.38413 7.97234 8.65246V9.62579C7.97234 9.89413 7.75484 10.1116 7.48651 10.1116H6.51318C6.24484 10.1108 6.02734 9.89329 6.02734 9.62579Z" stroke="#3772FF" stroke-linecap="round" stroke-linejoin="round"/>
<path fill-rule="evenodd" clip-rule="evenodd" d="M3.66699 13.5142V12.5409C3.66699 12.2726 3.88449 12.0551 4.15283 12.0551H5.12616C5.39449 12.0551 5.61199 12.2726 5.61199 12.5409V13.5142C5.61199 13.7826 5.39449 14.0001 5.12616 14.0001H4.15283C3.88449 14.0001 3.66699 13.7826 3.66699 13.5142Z" stroke="#3772FF" stroke-linecap="round" stroke-linejoin="round"/>
<path fill-rule="evenodd" clip-rule="evenodd" d="M8.38965 13.5142V12.5409C8.38965 12.2726 8.60715 12.0551 8.87548 12.0551H9.84881C10.1171 12.0551 10.3346 12.2726 10.3346 12.5409V13.5142C10.3338 13.7826 10.1163 14.0001 9.84798 14.0001H8.87465C8.60715 14.0001 8.38965 13.7826 8.38965 13.5142H8.38965Z" stroke="#3772FF" stroke-linecap="round" stroke-linejoin="round"/>
<path d="M8.86673 12.0583L7.6084 10.0917" stroke="#3772FF" stroke-linecap="round" stroke-linejoin="round"/>
<path d="M5.13379 12.0583L6.39212 10.0917" stroke="#3772FF" stroke-linecap="round" stroke-linejoin="round"/>
</svg>
